<svg width="19" height="19" viewBox="0 0 19 19" fill="none" xmlns="http://www.w3.org/2000/svg">
<g clip-path="url(#clip0)">
<path d="M18.0519 9.13662C17.3656 7.3616 16.1743 5.82655 14.6252 4.72121C13.0761 3.61587 11.237 2.98869 9.3353 2.91718C7.43359 2.98869 5.59452 3.61587 4.04539 4.72121C2.49625 5.82655 1.30496 7.3616 0.618742 9.13662C0.572398 9.2648 0.572398 9.40517 0.618742 9.53336C1.30496 11.3084 2.49625 12.8434 4.04539 13.9488C5.59452 15.0541 7.43359 15.6813 9.3353 15.7528C11.237 15.6813 13.0761 15.0541 14.6252 13.9488C16.1743 12.8434 17.3656 11.3084 18.0519 9.53336C18.0982 9.40517 18.0982 9.2648 18.0519 9.13662ZM9.3353 14.5859C6.24308 14.5859 2.97583 12.293 1.79145 9.33499C2.97583 6.37696 6.24308 4.08405 9.3353 4.08405C12.4275 4.08405 15.6948 6.37696 16.8791 9.33499C15.6948 12.293 12.4275 14.5859 9.3353 14.5859Z" fill="white"/>
<path d="M9.33461 5.83438C8.64225 5.83438 7.96544 6.03969 7.38977 6.42434C6.81409 6.809 6.36541 7.35572 6.10046 7.99537C5.8355 8.63503 5.76618 9.33889 5.90125 10.0179C6.03632 10.697 6.36972 11.3208 6.8593 11.8103C7.34887 12.2999 7.97262 12.6333 8.65167 12.7684C9.33073 12.9034 10.0346 12.8341 10.6742 12.5692C11.3139 12.3042 11.8606 11.8555 12.2453 11.2798C12.6299 10.7042 12.8352 10.0274 12.8352 9.33501C12.8352 8.40658 12.4664 7.51619 11.8099 6.85969C11.1534 6.2032 10.263 5.83438 9.33461 5.83438ZM9.33461 11.6688C8.87304 11.6688 8.42183 11.5319 8.03805 11.2754C7.65427 11.019 7.35514 10.6545 7.17851 10.2281C7.00187 9.80166 6.95565 9.33242 7.0457 8.87971C7.13575 8.42701 7.35802 8.01118 7.6844 7.6848C8.01078 7.35841 8.42662 7.13615 8.87932 7.0461C9.33202 6.95605 9.80126 7.00227 10.2277 7.1789C10.6541 7.35554 11.0186 7.65466 11.2751 8.03844C11.5315 8.42223 11.6684 8.87343 11.6684 9.33501C11.6684 9.95396 11.4225 10.5476 10.9848 10.9852C10.5472 11.4229 9.95356 11.6688 9.33461 11.6688Z" fill="white"/>
</g>
<defs>
<clipPath id="clip0">
<rect width="18.67" height="18.67" fill="white"/>
</clipPath>
</defs>
</svg>
